<?xml version="1.0"?>
<svg xmlns="http://www.w3.org/2000/svg" xmlns:xlink="http://www.w3.org/1999/xlink" xmlns:svgjs="http://svgjs.com/svgjs" version="1.1" width="512" height="512" x="0" y="0" viewBox="0 0 513.874 513.874" style="enable-background:new 0 0 512 512" xml:space="preserve" class=""><g>
<path xmlns="http://www.w3.org/2000/svg" style="" d="M340.8,216.137c2.4-17.6,2.4-35.2-0.8-52.8l33.6-21.6l-20.8-47.2l-38.4,10.4  c-10.4-14.4-23.2-27.2-38.4-36.8l8.8-39.2l-48-19.2l-20,34.4c-17.6-2.4-35.2-2.4-52.8,0.8l-21.6-33.6l-48,21.6l10.4,38.4  c-14.4,10.4-27.2,23.2-36.8,38.4l-39.2-8.8l-19.2,48l34.4,20c-2.4,17.6-2.4,35.2,0.8,52.8l-33.6,21.6l21.6,47.2l38.4-9.6  c10.4,14.4,23.2,27.2,38.4,36.8l-8.8,39.2l48,19.2l20-34.4c17.6,2.4,35.2,2.4,52.8-0.8l21.6,33.6l47.2-20.8l-9.6-40  c14.4-10.4,27.2-23.2,36.8-38.4l39.2,8.8l19.2-48L340.8,216.137z" fill="#5ed1b3" data-original="#fdbf5e" class=""/>
<g xmlns="http://www.w3.org/2000/svg">
	<circle style="" cx="192" cy="192.14" r="92.8" fill="#ffffff" data-original="#ffffff" class=""/>
	<path style="" d="M252.8,390.537l137.6-137.6c30.4,9.6,64.8,1.6,89.6-22.4c24-24,31.2-58.4,22.4-89.6l-69.6,69.6   l-59.2-59.2l69.6-69.6c-30.4-9.6-64.8-1.6-89.6,22.4c-24,24-31.2,58.4-22.4,89.6l-138.4,137.6c-30.4-9.6-64.8-1.6-89.6,22.4   c-24,24-31.2,58.4-22.4,89.6l69.6-69.6l59.2,59.2l-69.6,69.6c30.4,9.6,64.8,1.6,89.6-22.4   C254.4,455.337,261.6,420.937,252.8,390.537z" fill="#ffffff" data-original="#ffffff" class=""/>
	<polygon style="" points="340.8,365.737 365.6,340.137 239.2,213.737 241.6,191.337 172,147.337 147.2,172.137    191.2,242.537 214.4,239.337  " fill="#ffffff" data-original="#ffffff" class=""/>
</g>
<path xmlns="http://www.w3.org/2000/svg" style="" d="M396.8,344.937v-12.8c0-8.8-10.4-12.8-16.8-7.2l-54.4,54.4c-6.4,6.4-1.6,16.8,7.2,16.8h12  c8,0,16,2.4,22.4,7.2c0.8,0.8,1.6,1.6,2.4,2.4c8,8,11.2,18.4,10.4,28l1.6,1.6l53.6,53.6c14.4,14.4,38.4,14.4,53.6,0  c15.2-15.2,15.2-38.4,0-53.6l-53.6-53.6l-1.6-1.6c-9.6,0.8-20-2.4-28-10.4c-0.8-0.8-1.6-1.6-2.4-2.4  C398.4,360.937,396.8,352.937,396.8,344.937z" fill="#ff8c8a" data-original="#f16051" class=""/>
<g xmlns="http://www.w3.org/2000/svg">
	<path style="" d="M437.6,372.137h-4c-8,0.8-16-2.4-21.6-8c-0.8-0.8-1.6-1.6-1.6-2.4c-4-4.8-5.6-10.4-5.6-17.6v-12.8   c0-4.8-1.6-9.6-4.8-12.8c-6.4-6.4-18.4-7.2-24.8,0l-9.6,10.4l-20-20l47.2-47.2c8,1.6,16,3.2,24,3.2c26.4,0,50.4-10.4,68.8-28.8   c25.6-25.6,34.4-62.4,24-97.6l-4-12.8l-73.6,73.6l-48-48l73.6-73.6l-12.8-4c-8.8-2.4-18.4-4-28-4c-20.8,0-40.8,6.4-57.6,19.2   l-1.6-4l-40,10.4c-9.6-12-20-22.4-32-31.2l8.8-40l-60.8-24l-20.8,35.2c-15.2-1.6-30.4-1.6-44.8,0.8l-23.2-34.4l-60,26.4l10.4,40   c-12,9.6-22.4,20-31.2,32l-40-8.8l-24,60.8l35.2,20.8c-1.6,15.2-1.6,30.4,0.8,44.8l-34.4,22.4l26.4,60l40-10.4   c9.6,12,20,22.4,32,31.2l-7.2,32.8c-21.6,24.8-28.8,59.2-19.2,91.2l4,12.8l73.6-73.6l48,48l-73.6,73.6l12.8,4c8.8,2.4,18.4,4,28,4   c26.4,0,50.4-10.4,68.8-28.8c24-24,33.6-59.2,25.6-92.8l48-48l20,20l-8.8,8.8c-4.8,4.8-6.4,12.8-4,19.2c2.4,6.4,8.8,11.2,16.8,11.2   h12.8c6.4,0,12.8,1.6,17.6,5.6c0.8,0.8,1.6,0.8,2.4,1.6c6.4,5.6,8.8,13.6,8,21.6v4l57.6,57.6c8.8,8.8,20,13.6,32,13.6   s24-4.8,32.8-13.6c17.6-17.6,18.4-47.2,0-64.8L437.6,372.137z M426.4,86.537l-64.8,64.8l71.2,71.2l64.8-64.8   c3.2,24.8-5.6,49.6-23.2,67.2c-15.2,15.2-36,24-57.6,24c-8,0-16-0.8-24-3.2l-4.8-1.6l-53.6,53.6l-48-48l53.6-53.6l-1.6-4.8   c-8.8-28.8-0.8-60,20-81.6c15.2-15.2,36-24,57.6-24C420,85.737,423.2,85.737,426.4,86.537z M77.6,276.137l-3.2-4.8l-36.8,9.6   l-15.2-35.2l32-20.8l-0.8-5.6c-3.2-16.8-4-33.6-0.8-50.4l0.8-5.6l-32.8-19.2l13.6-35.2l37.6,8l3.2-4.8c9.6-14.4,20.8-26.4,34.4-36   l4.8-3.2l-9.6-36.8l35.2-15.2l20.8,32l5.6-0.8c16-3.2,33.6-4,50.4-0.8l5.6,0.8l19.2-32.8l35.2,13.6l-8,37.6l4.8,3.2   c14.4,9.6,26.4,20.8,36,34.4l3.2,4.8l30.4-8c-20,24-27.2,55.2-19.2,85.6l-47.2,47.2l-27.2-27.2l2.4-24l-80-49.6l-35.2,34.4   l50.4,79.2l24.8-3.2l27.2,26.4l-47.2,47.2c-8-1.6-16-3.2-24-3.2c-19.2,0-37.6,5.6-53.6,16l4.8-21.6l-4.8-3.2   C99.2,301.737,87.2,289.737,77.6,276.137z M243.2,388.137l1.6,4.8c8.8,28.8,0.8,60-20,81.6c-15.2,15.2-36,24-57.6,24   c-3.2,0-6.4,0-9.6-0.8l64.8-64.8l-71.2-71.2l-64.8,64.8c-3.2-24.8,5.6-49.6,23.2-67.2c15.2-15.2,36-24,57.6-24c8,0,16,0.8,24,3.2   l4.8,1.6l54.4-54.4l48,48L243.2,388.137z M217.6,230.537l-22.4,3.2l-37.6-60l16-16l60,37.6l-2.4,21.6l123.2,123.2l-13.6,13.6   L217.6,230.537z M483.2,482.537c-11.2,11.2-31.2,11.2-42.4,0l-52-52c0-11.2-4.8-22.4-12.8-30.4c-0.8-0.8-2.4-2.4-3.2-3.2   c-7.2-5.6-16.8-8.8-28-8.8h-12c-0.8,0-1.6,0-1.6-0.8s0-1.6,0-1.6l8.8-8.8l0,0l36.8-36.8l0,0l8.8-8.8c0.8-0.8,1.6-0.8,2.4,0l0.8,0.8   v12.8c0,10.4,3.2,20,9.6,28c0.8,0.8,1.6,2.4,3.2,3.2c8,8,19.2,12.8,30.4,12.8l0,0l52,52C495.2,452.137,495.2,471.337,483.2,482.537   z" fill="#193651" data-original="#193651" class=""/>
	
		<rect x="230.426" y="336.958" transform="matrix(-0.7071 -0.7071 0.7071 -0.7071 163.0958 757.4724)" style="" width="16" height="16" fill="#193651" data-original="#193651" class=""/>
	
		<rect x="337.587" y="230.246" transform="matrix(0.7071 -0.7071 0.7071 0.7071 -67.2453 314.1473)" style="" width="16" height="16" fill="#193651" data-original="#193651" class=""/>
</g>
<g xmlns="http://www.w3.org/2000/svg">
</g>
<g xmlns="http://www.w3.org/2000/svg">
</g>
<g xmlns="http://www.w3.org/2000/svg">
</g>
<g xmlns="http://www.w3.org/2000/svg">
</g>
<g xmlns="http://www.w3.org/2000/svg">
</g>
<g xmlns="http://www.w3.org/2000/svg">
</g>
<g xmlns="http://www.w3.org/2000/svg">
</g>
<g xmlns="http://www.w3.org/2000/svg">
</g>
<g xmlns="http://www.w3.org/2000/svg">
</g>
<g xmlns="http://www.w3.org/2000/svg">
</g>
<g xmlns="http://www.w3.org/2000/svg">
</g>
<g xmlns="http://www.w3.org/2000/svg">
</g>
<g xmlns="http://www.w3.org/2000/svg">
</g>
<g xmlns="http://www.w3.org/2000/svg">
</g>
<g xmlns="http://www.w3.org/2000/svg">
</g>
</g></svg>
